<svg viewBox="0 0 513 170" xmlns="http://www.w3.org/2000/svg"><rect width="513" height="170" fill="#0d1117"/><circle cx="8" cy="20" r="1.1" fill="#8b949e"><animate attributeName="opacity" values=".2;1;.2" dur="1.2s" repeatCount="indefinite"/></circle><circle cx="8" cy="60" r="1.1" fill="#8b949e"><animate attributeName="opacity" values=".2;1;.2" dur="1.6s" repeatCount="indefinite"/></circle><circle cx="8" cy="100" r="1.1" fill="#8b949e"><animate attributeName="opacity" values=".2;1;.2" dur="2s" repeatCount="indefinite"/></circle><circle cx="505" cy="25" r="1.1" fill="#8b949e"><animate attributeName="opacity" values=".2;1;.2" dur="1.2s" repeatCount="indefinite"/></circle><circle cx="505" cy="70" r="1.1" fill="#8b949e"><animate attributeName="opacity" values=".2;1;.2" dur="1.6s" repeatCount="indefinite"/></circle><circle cx="505" cy="110" r="1.1" fill="#8b949e"><animate attributeName="opacity" values=".2;1;.2" dur="2s" repeatCount="indefinite"/></circle><circle cx="30" cy="164" r="1.1" fill="#8b949e"><animate attributeName="opacity" values=".2;1;.2" dur="1.2s" repeatCount="indefinite"/></circle><circle cx="483" cy="164" r="1.1" fill="#8b949e"><animate attributeName="opacity" values=".2;1;.2" dur="1.6s" repeatCount="indefinite"/></circle><g><rect x="20" y="15" width="11" height="11" rx="2" fill="#ebedf0"/>
<rect x="20" y="29" width="11" height="11" rx="2" fill="#ebedf0"/>
<rect x="20" y="43" width="11" height="11" rx="2" fill="#ebedf0"/>
<rect x="20" y="57" width="11" height="11" rx="2" fill="#ebedf0"/>
<rect x="20" y="71" width="11" height="11" rx="2" fill="#ebedf0"/>
<rect x="20" y="85" width="11" height="11" rx="2" fill="#ebedf0"/>
<rect x="20" y="99" width="11" height="11" rx="2" fill="#ebedf0"/>
<rect x="34" y="15" width="11" height="11" rx="2" fill="#ebedf0"/>
<rect x="34" y="29" width="11" height="11" rx="2" fill="#ebedf0"/>
<rect x="34" y="43" width="11" height="11" rx="2" fill="#ebedf0"/>
<rect x="34" y="57" width="11" height="11" rx="2" fill="#ebedf0"/>
<rect x="34" y="71" width="11" height="11" rx="2" fill="#ebedf0"/>
<rect x="34" y="85" width="11" height="11" rx="2" fill="#ebedf0"/>
<rect x="34" y="99" width="11" height="11" rx="2" fill="#ebedf0"/>
<rect x="48" y="15" width="11" height="11" rx="2" fill="#ebedf0"/>
<rect x="48" y="29" width="11" height="11" rx="2" fill="#ebedf0"/>
<rect x="48" y="43" width="11" height="11" rx="2" fill="#ebedf0"/>
<rect x="48" y="57" width="11" height="11" rx="2" fill="#ebedf0"/>
<rect x="48" y="71" width="11" height="11" rx="2" fill="#ebedf0"/>
<rect x="48" y="85" width="11" height="11" rx="2" fill="#ebedf0"/>
<rect x="48" y="99" width="11" height="11" rx="2" fill="#ebedf0"/>
<rect x="62" y="15" width="11" height="11" rx="2" fill="#ebedf0"/>
<rect x="62" y="29" width="11" height="11" rx="2" fill="#ebedf0"/>
<rect x="62" y="43" width="11" height="11" rx="2" fill="#ebedf0"/>
<rect x="62" y="57" width="11" height="11" rx="2" fill="#ebedf0"/>
<rect x="62" y="71" width="11" height="11" rx="2" fill="#ebedf0"/>
<rect x="62" y="85" width="11" height="11" rx="2" fill="#ebedf0"/>
<rect x="62" y="99" width="11" height="11" rx="2" fill="#ebedf0"/>
<rect x="76" y="15" width="11" height="11" rx="2" fill="#ebedf0"/>
<rect x="76" y="29" width="11" height="11" rx="2" fill="#ebedf0"/>
<rect x="76" y="43" width="11" height="11" rx="2" fill="#ebedf0"/>
<rect x="76" y="57" width="11" height="11" rx="2" fill="#ebedf0"/>
<rect x="76" y="71" width="11" height="11" rx="2" fill="#ebedf0"/>
<rect x="76" y="85" width="11" height="11" rx="2" fill="#ebedf0"/>
<rect x="76" y="99" width="11" height="11" rx="2" fill="#ebedf0"/>
<rect x="90" y="15" width="11" height="11" rx="2" fill="#ebedf0"/>
<rect x="90" y="29" width="11" height="11" rx="2" fill="#ebedf0"/>
<rect x="90" y="43" width="11" height="11" rx="2" fill="#ebedf0"/>
<rect x="90" y="57" width="11" height="11" rx="2" fill="#ebedf0"/>
<rect x="90" y="71" width="11" height="11" rx="2" fill="#ebedf0"/>
<rect x="90" y="85" width="11" height="11" rx="2" fill="#ebedf0"/>
<rect x="90" y="99" width="11" height="11" rx="2" fill="#ebedf0"/>
<rect x="104" y="15" width="11" height="11" rx="2" fill="#ebedf0"/>
<rect x="104" y="29" width="11" height="11" rx="2" fill="#ebedf0"/>
<rect x="104" y="43" width="11" height="11" rx="2" fill="#ebedf0"/>
<rect x="104" y="57" width="11" height="11" rx="2" fill="#ebedf0"/>
<rect x="104" y="71" width="11" height="11" rx="2" fill="#ebedf0"/>
<rect x="104" y="85" width="11" height="11" rx="2" fill="#ebedf0"/>
<rect x="104" y="99" width="11" height="11" rx="2" fill="#ebedf0"/>
<rect x="118" y="15" width="11" height="11" rx="2" fill="#ebedf0"/>
<rect x="118" y="29" width="11" height="11" rx="2" fill="#ebedf0"/>
<rect x="118" y="43" width="11" height="11" rx="2" fill="#ebedf0"/>
<rect x="118" y="57" width="11" height="11" rx="2" fill="#ebedf0"/>
<rect x="118" y="71" width="11" height="11" rx="2" fill="#ebedf0"/>
<rect x="118" y="85" width="11" height="11" rx="2" fill="#ebedf0"/>
<rect x="118" y="99" width="11" height="11" rx="2" fill="#ebedf0"/>
<rect x="132" y="15" width="11" height="11" rx="2" fill="#ebedf0"/>
<rect x="132" y="29" width="11" height="11" rx="2" fill="#ebedf0"/>
<rect x="132" y="43" width="11" height="11" rx="2" fill="#ebedf0"/>
<rect x="132" y="57" width="11" height="11" rx="2" fill="#ebedf0"/>
<rect x="132" y="71" width="11" height="11" rx="2" fill="#ebedf0"/>
<rect x="132" y="85" width="11" height="11" rx="2" fill="#ebedf0"/>
<rect x="132" y="99" width="11" height="11" rx="2" fill="#ebedf0"/>
<rect x="146" y="15" width="11" height="11" rx="2" fill="#ebedf0"/>
<rect x="146" y="29" width="11" height="11" rx="2" fill="#ebedf0"/>
<rect x="146" y="43" width="11" height="11" rx="2" fill="#ebedf0"/>
<rect x="146" y="57" width="11" height="11" rx="2" fill="#ebedf0"/>
<rect x="146" y="71" width="11" height="11" rx="2" fill="#ebedf0"/>
<rect x="146" y="85" width="11" height="11" rx="2" fill="#ebedf0"/>
<rect x="146" y="99" width="11" height="11" rx="2" fill="#ebedf0"/>
<rect x="160" y="15" width="11" height="11" rx="2" fill="#ebedf0"/>
<rect x="160" y="29" width="11" height="11" rx="2" fill="#ebedf0"/>
<rect x="160" y="43" width="11" height="11" rx="2" fill="#ebedf0"/>
<rect x="160" y="57" width="11" height="11" rx="2" fill="#ebedf0"/>
<rect x="160" y="71" width="11" height="11" rx="2" fill="#ebedf0"/>
<rect x="160" y="85" width="11" height="11" rx="2" fill="#9be9a8"/>
<rect x="160" y="99" width="11" height="11" rx="2" fill="#ebedf0"/>
<rect x="174" y="15" width="11" height="11" rx="2" fill="#ebedf0"/>
<rect x="174" y="29" width="11" height="11" rx="2" fill="#ebedf0"/>
<rect x="174" y="43" width="11" height="11" rx="2" fill="#ebedf0"/>
<rect x="174" y="57" width="11" height="11" rx="2" fill="#ebedf0"/>
<rect x="174" y="71" width="11" height="11" rx="2" fill="#ebedf0"/>
<rect x="174" y="85" width="11" height="11" rx="2" fill="#ebedf0"/>
<rect x="174" y="99" width="11" height="11" rx="2" fill="#ebedf0"/>
<rect x="188" y="15" width="11" height="11" rx="2" fill="#ebedf0"/>
<rect x="188" y="29" width="11" height="11" rx="2" fill="#ebedf0"/>
<rect x="188" y="43" width="11" height="11" rx="2" fill="#ebedf0"/>
<rect x="188" y="57" width="11" height="11" rx="2" fill="#ebedf0"/>
<rect x="188" y="71" width="11" height="11" rx="2" fill="#ebedf0"/>
<rect x="188" y="85" width="11" height="11" rx="2" fill="#ebedf0"/>
<rect x="188" y="99" width="11" height="11" rx="2" fill="#ebedf0"/>
<rect x="202" y="15" width="11" height="11" rx="2" fill="#ebedf0"/>
<rect x="202" y="29" width="11" height="11" rx="2" fill="#ebedf0"/>
<rect x="202" y="43" width="11" height="11" rx="2" fill="#ebedf0"/>
<rect x="202" y="57" width="11" height="11" rx="2" fill="#ebedf0"/>
<rect x="202" y="71" width="11" height="11" rx="2" fill="#ebedf0"/>
<rect x="202" y="85" width="11" height="11" rx="2" fill="#ebedf0"/>
<rect x="202" y="99" width="11" height="11" rx="2" fill="#ebedf0"/>
<rect x="216" y="15" width="11" height="11" rx="2" fill="#ebedf0"/>
<rect x="216" y="29" width="11" height="11" rx="2" fill="#ebedf0"/>
<rect x="216" y="43" width="11" height="11" rx="2" fill="#ebedf0"/>
<rect x="216" y="57" width="11" height="11" rx="2" fill="#ebedf0"/>
<rect x="216" y="71" width="11" height="11" rx="2" fill="#ebedf0"/>
<rect x="216" y="85" width="11" height="11" rx="2" fill="#ebedf0"/>
<rect x="216" y="99" width="11" height="11" rx="2" fill="#ebedf0"/>
<rect x="230" y="15" width="11" height="11" rx="2" fill="#ebedf0"/>
<rect x="230" y="29" width="11" height="11" rx="2" fill="#ebedf0"/>
<rect x="230" y="43" width="11" height="11" rx="2" fill="#ebedf0"/>
<rect x="230" y="57" width="11" height="11" rx="2" fill="#ebedf0"/>
<rect x="230" y="71" width="11" height="11" rx="2" fill="#ebedf0"/>
<rect x="230" y="85" width="11" height="11" rx="2" fill="#ebedf0"/>
<rect x="230" y="99" width="11" height="11" rx="2" fill="#ebedf0"/>
<rect x="244" y="15" width="11" height="11" rx="2" fill="#ebedf0"/>
<rect x="244" y="29" width="11" height="11" rx="2" fill="#ebedf0"/>
<rect x="244" y="43" width="11" height="11" rx="2" fill="#ebedf0"/>
<rect x="244" y="57" width="11" height="11" rx="2" fill="#ebedf0"/>
<rect x="244" y="71" width="11" height="11" rx="2" fill="#ebedf0"/>
<rect x="244" y="85" width="11" height="11" rx="2" fill="#ebedf0"/>
<rect x="244" y="99" width="11" height="11" rx="2" fill="#ebedf0"/>
<rect x="258" y="15" width="11" height="11" rx="2" fill="#ebedf0"/>
<rect x="258" y="29" width="11" height="11" rx="2" fill="#ebedf0"/>
<rect x="258" y="43" width="11" height="11" rx="2" fill="#ebedf0"/>
<rect x="258" y="57" width="11" height="11" rx="2" fill="#ebedf0"/>
<rect x="258" y="71" width="11" height="11" rx="2" fill="#ebedf0"/>
<rect x="258" y="85" width="11" height="11" rx="2" fill="#ebedf0"/>
<rect x="258" y="99" width="11" height="11" rx="2" fill="#ebedf0"/>
<rect x="272" y="15" width="11" height="11" rx="2" fill="#ebedf0"/>
<rect x="272" y="29" width="11" height="11" rx="2" fill="#ebedf0"/>
<rect x="272" y="43" width="11" height="11" rx="2" fill="#ebedf0"/>
<rect x="272" y="57" width="11" height="11" rx="2" fill="#ebedf0"/>
<rect x="272" y="71" width="11" height="11" rx="2" fill="#ebedf0"/>
<rect x="272" y="85" width="11" height="11" rx="2" fill="#ebedf0"/>
<rect x="272" y="99" width="11" height="11" rx="2" fill="#ebedf0"/>
<rect x="286" y="15" width="11" height="11" rx="2" fill="#ebedf0"/>
<rect x="286" y="29" width="11" height="11" rx="2" fill="#ebedf0"/>
<rect x="286" y="43" width="11" height="11" rx="2" fill="#ebedf0"/>
<rect x="286" y="57" width="11" height="11" rx="2" fill="#ebedf0"/>
<rect x="286" y="71" width="11" height="11" rx="2" fill="#ebedf0"/>
<rect x="286" y="85" width="11" height="11" rx="2" fill="#ebedf0"/>
<rect x="286" y="99" width="11" height="11" rx="2" fill="#ebedf0"/>
<rect x="300" y="15" width="11" height="11" rx="2" fill="#ebedf0"/>
<rect x="300" y="29" width="11" height="11" rx="2" fill="#ebedf0"/>
<rect x="300" y="43" width="11" height="11" rx="2" fill="#ebedf0"/>
<rect x="300" y="57" width="11" height="11" rx="2" fill="#ebedf0"/>
<rect x="300" y="71" width="11" height="11" rx="2" fill="#ebedf0"/>
<rect x="300" y="85" width="11" height="11" rx="2" fill="#ebedf0"/>
<rect x="300" y="99" width="11" height="11" rx="2" fill="#ebedf0"/>
<rect x="314" y="15" width="11" height="11" rx="2" fill="#ebedf0"/>
<rect x="314" y="29" width="11" height="11" rx="2" fill="#ebedf0"/>
<rect x="314" y="43" width="11" height="11" rx="2" fill="#ebedf0"/>
<rect x="314" y="57" width="11" height="11" rx="2" fill="#9be9a8">
      <animate attributeName="fill" dur="20s" repeatCount="indefinite" keyTimes="0;0.3127;0.3187;0.6873;0.6933;1" values="#9be9a8;#9be9a8;#39d353;#9be9a8;#39d353;#9be9a8"/>
    </rect>
<rect x="314" y="71" width="11" height="11" rx="2" fill="#ebedf0"/>
<rect x="314" y="85" width="11" height="11" rx="2" fill="#9be9a8"/>
<rect x="314" y="99" width="11" height="11" rx="2" fill="#ebedf0"/>
<rect x="328" y="15" width="11" height="11" rx="2" fill="#ebedf0"/>
<rect x="328" y="29" width="11" height="11" rx="2" fill="#ebedf0"/>
<rect x="328" y="43" width="11" height="11" rx="2" fill="#ebedf0"/>
<rect x="328" y="57" width="11" height="11" rx="2" fill="#ebedf0"/>
<rect x="328" y="71" width="11" height="11" rx="2" fill="#ebedf0"/>
<rect x="328" y="85" width="11" height="11" rx="2" fill="#ebedf0"/>
<rect x="328" y="99" width="11" height="11" rx="2" fill="#ebedf0"/>
<rect x="342" y="15" width="11" height="11" rx="2" fill="#ebedf0"/>
<rect x="342" y="29" width="11" height="11" rx="2" fill="#ebedf0"/>
<rect x="342" y="43" width="11" height="11" rx="2" fill="#ebedf0"/>
<rect x="342" y="57" width="11" height="11" rx="2" fill="#ebedf0"/>
<rect x="342" y="71" width="11" height="11" rx="2" fill="#ebedf0"/>
<rect x="342" y="85" width="11" height="11" rx="2" fill="#ebedf0"/>
<rect x="342" y="99" width="11" height="11" rx="2" fill="#ebedf0"/>
<rect x="356" y="15" width="11" height="11" rx="2" fill="#ebedf0"/>
<rect x="356" y="29" width="11" height="11" rx="2" fill="#ebedf0"/>
<rect x="356" y="43" width="11" height="11" rx="2" fill="#ebedf0"/>
<rect x="356" y="57" width="11" height="11" rx="2" fill="#ebedf0"/>
<rect x="356" y="71" width="11" height="11" rx="2" fill="#ebedf0"/>
<rect x="356" y="85" width="11" height="11" rx="2" fill="#ebedf0"/>
<rect x="356" y="99" width="11" height="11" rx="2" fill="#ebedf0"/>
<rect x="370" y="15" width="11" height="11" rx="2" fill="#ebedf0"/>
<rect x="370" y="29" width="11" height="11" rx="2" fill="#ebedf0"/>
<rect x="370" y="43" width="11" height="11" rx="2" fill="#ebedf0"/>
<rect x="370" y="57" width="11" height="11" rx="2" fill="#ebedf0"/>
<rect x="370" y="71" width="11" height="11" rx="2" fill="#ebedf0"/>
<rect x="370" y="85" width="11" height="11" rx="2" fill="#216e39">
      <animate attributeName="fill" dur="20s" repeatCount="indefinite" keyTimes="0;0.3685;0.3745;0.6315;0.6375;1" values="#216e39;#216e39;#39d353;#216e39;#39d353;#216e39"/>
    </rect>
<rect x="370" y="99" width="11" height="11" rx="2" fill="#9be9a8">
      <animate attributeName="fill" dur="20s" repeatCount="indefinite" keyTimes="0;0.3685;0.3745;0.6315;0.6375;1" values="#9be9a8;#9be9a8;#39d353;#9be9a8;#39d353;#9be9a8"/>
    </rect>
<rect x="384" y="15" width="11" height="11" rx="2" fill="#ebedf0"/>
<rect x="384" y="29" width="11" height="11" rx="2" fill="#ebedf0"/>
<rect x="384" y="43" width="11" height="11" rx="2" fill="#30a14e">
      <animate attributeName="fill" dur="20s" repeatCount="indefinite" keyTimes="0;0.3824;0.3884;0.6176;0.6236;1" values="#30a14e;#30a14e;#39d353;#30a14e;#39d353;#30a14e"/>
    </rect>
<rect x="384" y="57" width="11" height="11" rx="2" fill="#ebedf0"/>
<rect x="384" y="71" width="11" height="11" rx="2" fill="#40c463">
      <animate attributeName="fill" dur="20s" repeatCount="indefinite" keyTimes="0;0.3824;0.3884;0.6176;0.6236;1" values="#40c463;#40c463;#39d353;#40c463;#39d353;#40c463"/>
    </rect>
<rect x="384" y="85" width="11" height="11" rx="2" fill="#ebedf0"/>
<rect x="384" y="99" width="11" height="11" rx="2" fill="#ebedf0"/>
<rect x="398" y="15" width="11" height="11" rx="2" fill="#ebedf0"/>
<rect x="398" y="29" width="11" height="11" rx="2" fill="#30a14e">
      <animate attributeName="fill" dur="20s" repeatCount="indefinite" keyTimes="0;0.3964;0.4024;0.6036;0.6096;1" values="#30a14e;#30a14e;#39d353;#30a14e;#39d353;#30a14e"/>
    </rect>
<rect x="398" y="43" width="11" height="11" rx="2" fill="#ebedf0"/>
<rect x="398" y="57" width="11" height="11" rx="2" fill="#216e39">
      <animate attributeName="fill" dur="20s" repeatCount="indefinite" keyTimes="0;0.3964;0.4024;0.6036;0.6096;1" values="#216e39;#216e39;#39d353;#216e39;#39d353;#216e39"/>
    </rect>
<rect x="398" y="71" width="11" height="11" rx="2" fill="#ebedf0"/>
<rect x="398" y="85" width="11" height="11" rx="2" fill="#ebedf0"/>
<rect x="398" y="99" width="11" height="11" rx="2" fill="#ebedf0"/>
<rect x="412" y="15" width="11" height="11" rx="2" fill="#9be9a8">
      <animate attributeName="fill" dur="20s" repeatCount="indefinite" keyTimes="0;0.4103;0.4163;0.5897;0.5957;1" values="#9be9a8;#9be9a8;#39d353;#9be9a8;#39d353;#9be9a8"/>
    </rect>
<rect x="412" y="29" width="11" height="11" rx="2" fill="#40c463">
      <animate attributeName="fill" dur="20s" repeatCount="indefinite" keyTimes="0;0.4103;0.4163;0.5897;0.5957;1" values="#40c463;#40c463;#39d353;#40c463;#39d353;#40c463"/>
    </rect>
<rect x="412" y="43" width="11" height="11" rx="2" fill="#9be9a8">
      <animate attributeName="fill" dur="20s" repeatCount="indefinite" keyTimes="0;0.4103;0.4163;0.5897;0.5957;1" values="#9be9a8;#9be9a8;#39d353;#9be9a8;#39d353;#9be9a8"/>
    </rect>
<rect x="412" y="57" width="11" height="11" rx="2" fill="#ebedf0"/>
<rect x="412" y="71" width="11" height="11" rx="2" fill="#ebedf0"/>
<rect x="412" y="85" width="11" height="11" rx="2" fill="#ebedf0"/>
<rect x="412" y="99" width="11" height="11" rx="2" fill="#ebedf0"/>
<rect x="426" y="15" width="11" height="11" rx="2" fill="#ebedf0"/>
<rect x="426" y="29" width="11" height="11" rx="2" fill="#ebedf0"/>
<rect x="426" y="43" width="11" height="11" rx="2" fill="#ebedf0"/>
<rect x="426" y="57" width="11" height="11" rx="2" fill="#ebedf0"/>
<rect x="426" y="71" width="11" height="11" rx="2" fill="#ebedf0"/>
<rect x="426" y="85" width="11" height="11" rx="2" fill="#ebedf0"/>
<rect x="426" y="99" width="11" height="11" rx="2" fill="#ebedf0"/>
<rect x="440" y="15" width="11" height="11" rx="2" fill="#9be9a8"/>
<rect x="440" y="29" width="11" height="11" rx="2" fill="#9be9a8"/>
<rect x="440" y="43" width="11" height="11" rx="2" fill="#ebedf0"/>
<rect x="440" y="57" width="11" height="11" rx="2" fill="#9be9a8"/>
<rect x="440" y="71" width="11" height="11" rx="2" fill="#ebedf0"/>
<rect x="440" y="85" width="11" height="11" rx="2" fill="#ebedf0"/>
<rect x="440" y="99" width="11" height="11" rx="2" fill="#ebedf0"/>
<rect x="454" y="15" width="11" height="11" rx="2" fill="#ebedf0"/>
<rect x="454" y="29" width="11" height="11" rx="2" fill="#ebedf0"/>
<rect x="454" y="43" width="11" height="11" rx="2" fill="#ebedf0"/>
<rect x="454" y="57" width="11" height="11" rx="2" fill="#ebedf0"/>
<rect x="454" y="71" width="11" height="11" rx="2" fill="#ebedf0"/>
<rect x="454" y="85" width="11" height="11" rx="2" fill="#ebedf0"/>
<rect x="454" y="99" width="11" height="11" rx="2" fill="#ebedf0"/>
<rect x="468" y="15" width="11" height="11" rx="2" fill="#ebedf0"/>
<rect x="468" y="29" width="11" height="11" rx="2" fill="#ebedf0"/>
<rect x="468" y="43" width="11" height="11" rx="2" fill="#ebedf0"/>
<rect x="468" y="57" width="11" height="11" rx="2" fill="#9be9a8">
      <animate attributeName="fill" dur="20s" repeatCount="indefinite" keyTimes="0;0.4661;0.4721;0.5339;0.5399;1" values="#9be9a8;#9be9a8;#39d353;#9be9a8;#39d353;#9be9a8"/>
    </rect>
<rect x="468" y="71" width="11" height="11" rx="2" fill="#ebedf0"/>
<rect x="468" y="85" width="11" height="11" rx="2" fill="#ebedf0"/>
<rect x="468" y="99" width="11" height="11" rx="2" fill="#ebedf0"/>
<rect x="482" y="15" width="11" height="11" rx="2" fill="#ebedf0"/>
<rect x="482" y="29" width="11" height="11" rx="2" fill="#ebedf0"/>
<rect x="482" y="43" width="11" height="11" rx="2" fill="#ebedf0"/>
<rect x="482" y="57" width="11" height="11" rx="2" fill="#40c463">
      <animate attributeName="fill" dur="20s" repeatCount="indefinite" keyTimes="0;0.48;0.486;0.52;0.526;1" values="#40c463;#40c463;#39d353;#40c463;#39d353;#40c463"/>
    </rect>
<rect x="482" y="71" width="11" height="11" rx="2" fill="#ebedf0"/></g><g><circle cx="319.5" cy="128" r="2.4" fill="#7ee787">
        <animate attributeName="cy" dur="20s" repeatCount="indefinite" keyTimes="0;0.2947;0.3127;1" values="128;128;62.5;62.5"/>
        <animate attributeName="opacity" dur="20s" repeatCount="indefinite" keyTimes="0;0.2947;0.3127;0.3187;1" values="0;1;1;0;0"/>
      </circle><circle cx="375.5" cy="128" r="2.4" fill="#7ee787">
        <animate attributeName="cy" dur="20s" repeatCount="indefinite" keyTimes="0;0.3505;0.3685;1" values="128;128;90.5;90.5"/>
        <animate attributeName="opacity" dur="20s" repeatCount="indefinite" keyTimes="0;0.3505;0.3685;0.3745;1" values="0;1;1;0;0"/>
      </circle><circle cx="375.5" cy="128" r="2.4" fill="#7ee787">
        <animate attributeName="cy" dur="20s" repeatCount="indefinite" keyTimes="0;0.3505;0.3685;1" values="128;128;104.5;104.5"/>
        <animate attributeName="opacity" dur="20s" repeatCount="indefinite" keyTimes="0;0.3505;0.3685;0.3745;1" values="0;1;1;0;0"/>
      </circle><circle cx="389.5" cy="128" r="2.4" fill="#7ee787">
        <animate attributeName="cy" dur="20s" repeatCount="indefinite" keyTimes="0;0.3644;0.3824;1" values="128;128;48.5;48.5"/>
        <animate attributeName="opacity" dur="20s" repeatCount="indefinite" keyTimes="0;0.3644;0.3824;0.3884;1" values="0;1;1;0;0"/>
      </circle><circle cx="389.5" cy="128" r="2.4" fill="#7ee787">
        <animate attributeName="cy" dur="20s" repeatCount="indefinite" keyTimes="0;0.3644;0.3824;1" values="128;128;76.5;76.5"/>
        <animate attributeName="opacity" dur="20s" repeatCount="indefinite" keyTimes="0;0.3644;0.3824;0.3884;1" values="0;1;1;0;0"/>
      </circle><circle cx="403.5" cy="128" r="2.4" fill="#7ee787">
        <animate attributeName="cy" dur="20s" repeatCount="indefinite" keyTimes="0;0.3784;0.3964;1" values="128;128;34.5;34.5"/>
        <animate attributeName="opacity" dur="20s" repeatCount="indefinite" keyTimes="0;0.3784;0.3964;0.4024;1" values="0;1;1;0;0"/>
      </circle><circle cx="403.5" cy="128" r="2.4" fill="#7ee787">
        <animate attributeName="cy" dur="20s" repeatCount="indefinite" keyTimes="0;0.3784;0.3964;1" values="128;128;62.5;62.5"/>
        <animate attributeName="opacity" dur="20s" repeatCount="indefinite" keyTimes="0;0.3784;0.3964;0.4024;1" values="0;1;1;0;0"/>
      </circle><circle cx="417.5" cy="128" r="2.4" fill="#7ee787">
        <animate attributeName="cy" dur="20s" repeatCount="indefinite" keyTimes="0;0.3923;0.4103;1" values="128;128;20.5;20.5"/>
        <animate attributeName="opacity" dur="20s" repeatCount="indefinite" keyTimes="0;0.3923;0.4103;0.4163;1" values="0;1;1;0;0"/>
      </circle><circle cx="417.5" cy="128" r="2.4" fill="#7ee787">
        <animate attributeName="cy" dur="20s" repeatCount="indefinite" keyTimes="0;0.3923;0.4103;1" values="128;128;34.5;34.5"/>
        <animate attributeName="opacity" dur="20s" repeatCount="indefinite" keyTimes="0;0.3923;0.4103;0.4163;1" values="0;1;1;0;0"/>
      </circle><circle cx="417.5" cy="128" r="2.4" fill="#7ee787">
        <animate attributeName="cy" dur="20s" repeatCount="indefinite" keyTimes="0;0.3923;0.4103;1" values="128;128;48.5;48.5"/>
        <animate attributeName="opacity" dur="20s" repeatCount="indefinite" keyTimes="0;0.3923;0.4103;0.4163;1" values="0;1;1;0;0"/>
      </circle><circle cx="473.5" cy="128" r="2.4" fill="#7ee787">
        <animate attributeName="cy" dur="20s" repeatCount="indefinite" keyTimes="0;0.4481;0.4661;1" values="128;128;62.5;62.5"/>
        <animate attributeName="opacity" dur="20s" repeatCount="indefinite" keyTimes="0;0.4481;0.4661;0.4721;1" values="0;1;1;0;0"/>
      </circle><circle cx="487.5" cy="128" r="2.4" fill="#7ee787">
        <animate attributeName="cy" dur="20s" repeatCount="indefinite" keyTimes="0;0.462;0.48;1" values="128;128;62.5;62.5"/>
        <animate attributeName="opacity" dur="20s" repeatCount="indefinite" keyTimes="0;0.462;0.48;0.486;1" values="0;1;1;0;0"/>
      </circle><circle cx="487.5" cy="128" r="2.4" fill="#7ee787">
        <animate attributeName="cy" dur="20s" repeatCount="indefinite" keyTimes="0;0.502;0.52;1" values="128;128;62.5;62.5"/>
        <animate attributeName="opacity" dur="20s" repeatCount="indefinite" keyTimes="0;0.502;0.52;0.526;1" values="0;1;1;0;0"/>
      </circle><circle cx="473.5" cy="128" r="2.4" fill="#7ee787">
        <animate attributeName="cy" dur="20s" repeatCount="indefinite" keyTimes="0;0.5159;0.5339;1" values="128;128;62.5;62.5"/>
        <animate attributeName="opacity" dur="20s" repeatCount="indefinite" keyTimes="0;0.5159;0.5339;0.5399;1" values="0;1;1;0;0"/>
      </circle><circle cx="417.5" cy="128" r="2.4" fill="#7ee787">
        <animate attributeName="cy" dur="20s" repeatCount="indefinite" keyTimes="0;0.5717;0.5897;1" values="128;128;48.5;48.5"/>
        <animate attributeName="opacity" dur="20s" repeatCount="indefinite" keyTimes="0;0.5717;0.5897;0.5957;1" values="0;1;1;0;0"/>
      </circle><circle cx="417.5" cy="128" r="2.4" fill="#7ee787">
        <animate attributeName="cy" dur="20s" repeatCount="indefinite" keyTimes="0;0.5717;0.5897;1" values="128;128;34.5;34.5"/>
        <animate attributeName="opacity" dur="20s" repeatCount="indefinite" keyTimes="0;0.5717;0.5897;0.5957;1" values="0;1;1;0;0"/>
      </circle><circle cx="417.5" cy="128" r="2.4" fill="#7ee787">
        <animate attributeName="cy" dur="20s" repeatCount="indefinite" keyTimes="0;0.5717;0.5897;1" values="128;128;20.5;20.5"/>
        <animate attributeName="opacity" dur="20s" repeatCount="indefinite" keyTimes="0;0.5717;0.5897;0.5957;1" values="0;1;1;0;0"/>
      </circle><circle cx="403.5" cy="128" r="2.4" fill="#7ee787">
        <animate attributeName="cy" dur="20s" repeatCount="indefinite" keyTimes="0;0.5856;0.6036;1" values="128;128;62.5;62.5"/>
        <animate attributeName="opacity" dur="20s" repeatCount="indefinite" keyTimes="0;0.5856;0.6036;0.6096;1" values="0;1;1;0;0"/>
      </circle><circle cx="403.5" cy="128" r="2.4" fill="#7ee787">
        <animate attributeName="cy" dur="20s" repeatCount="indefinite" keyTimes="0;0.5856;0.6036;1" values="128;128;34.5;34.5"/>
        <animate attributeName="opacity" dur="20s" repeatCount="indefinite" keyTimes="0;0.5856;0.6036;0.6096;1" values="0;1;1;0;0"/>
      </circle><circle cx="389.5" cy="128" r="2.4" fill="#7ee787">
        <animate attributeName="cy" dur="20s" repeatCount="indefinite" keyTimes="0;0.5996;0.6176;1" values="128;128;76.5;76.5"/>
        <animate attributeName="opacity" dur="20s" repeatCount="indefinite" keyTimes="0;0.5996;0.6176;0.6236;1" values="0;1;1;0;0"/>
      </circle><circle cx="389.5" cy="128" r="2.4" fill="#7ee787">
        <animate attributeName="cy" dur="20s" repeatCount="indefinite" keyTimes="0;0.5996;0.6176;1" values="128;128;48.5;48.5"/>
        <animate attributeName="opacity" dur="20s" repeatCount="indefinite" keyTimes="0;0.5996;0.6176;0.6236;1" values="0;1;1;0;0"/>
      </circle><circle cx="375.5" cy="128" r="2.4" fill="#7ee787">
        <animate attributeName="cy" dur="20s" repeatCount="indefinite" keyTimes="0;0.6135;0.6315;1" values="128;128;104.5;104.5"/>
        <animate attributeName="opacity" dur="20s" repeatCount="indefinite" keyTimes="0;0.6135;0.6315;0.6375;1" values="0;1;1;0;0"/>
      </circle><circle cx="375.5" cy="128" r="2.4" fill="#7ee787">
        <animate attributeName="cy" dur="20s" repeatCount="indefinite" keyTimes="0;0.6135;0.6315;1" values="128;128;90.5;90.5"/>
        <animate attributeName="opacity" dur="20s" repeatCount="indefinite" keyTimes="0;0.6135;0.6315;0.6375;1" values="0;1;1;0;0"/>
      </circle><circle cx="319.5" cy="128" r="2.4" fill="#7ee787">
        <animate attributeName="cy" dur="20s" repeatCount="indefinite" keyTimes="0;0.6693;0.6873;1" values="128;128;62.5;62.5"/>
        <animate attributeName="opacity" dur="20s" repeatCount="indefinite" keyTimes="0;0.6693;0.6873;0.6933;1" values="0;1;1;0;0"/>
      </circle></g><g><circle cx="319.5" cy="62.5" r="0" fill="none" stroke="#56d364" stroke-width="1.6" opacity="0">
        <animate attributeName="r" dur="20s" repeatCount="indefinite" keyTimes="0;0.3127;0.3307;1" values="0;1;9;9"/>
        <animate attributeName="opacity" dur="20s" repeatCount="indefinite" keyTimes="0;0.3127;0.3307;1" values="0;1;1;0"/>
      </circle><circle cx="375.5" cy="90.5" r="0" fill="none" stroke="#56d364" stroke-width="1.6" opacity="0">
        <animate attributeName="r" dur="20s" repeatCount="indefinite" keyTimes="0;0.3685;0.3865;1" values="0;1;9;9"/>
        <animate attributeName="opacity" dur="20s" repeatCount="indefinite" keyTimes="0;0.3685;0.3865;1" values="0;1;1;0"/>
      </circle><circle cx="375.5" cy="104.5" r="0" fill="none" stroke="#56d364" stroke-width="1.6" opacity="0">
        <animate attributeName="r" dur="20s" repeatCount="indefinite" keyTimes="0;0.3685;0.3865;1" values="0;1;9;9"/>
        <animate attributeName="opacity" dur="20s" repeatCount="indefinite" keyTimes="0;0.3685;0.3865;1" values="0;1;1;0"/>
      </circle><circle cx="389.5" cy="48.5" r="0" fill="none" stroke="#56d364" stroke-width="1.6" opacity="0">
        <animate attributeName="r" dur="20s" repeatCount="indefinite" keyTimes="0;0.3824;0.4004;1" values="0;1;9;9"/>
        <animate attributeName="opacity" dur="20s" repeatCount="indefinite" keyTimes="0;0.3824;0.4004;1" values="0;1;1;0"/>
      </circle><circle cx="389.5" cy="76.5" r="0" fill="none" stroke="#56d364" stroke-width="1.6" opacity="0">
        <animate attributeName="r" dur="20s" repeatCount="indefinite" keyTimes="0;0.3824;0.4004;1" values="0;1;9;9"/>
        <animate attributeName="opacity" dur="20s" repeatCount="indefinite" keyTimes="0;0.3824;0.4004;1" values="0;1;1;0"/>
      </circle><circle cx="403.5" cy="34.5" r="0" fill="none" stroke="#56d364" stroke-width="1.6" opacity="0">
        <animate attributeName="r" dur="20s" repeatCount="indefinite" keyTimes="0;0.3964;0.4144;1" values="0;1;9;9"/>
        <animate attributeName="opacity" dur="20s" repeatCount="indefinite" keyTimes="0;0.3964;0.4144;1" values="0;1;1;0"/>
      </circle><circle cx="403.5" cy="62.5" r="0" fill="none" stroke="#56d364" stroke-width="1.6" opacity="0">
        <animate attributeName="r" dur="20s" repeatCount="indefinite" keyTimes="0;0.3964;0.4144;1" values="0;1;9;9"/>
        <animate attributeName="opacity" dur="20s" repeatCount="indefinite" keyTimes="0;0.3964;0.4144;1" values="0;1;1;0"/>
      </circle><circle cx="417.5" cy="20.5" r="0" fill="none" stroke="#56d364" stroke-width="1.6" opacity="0">
        <animate attributeName="r" dur="20s" repeatCount="indefinite" keyTimes="0;0.4103;0.4283;1" values="0;1;9;9"/>
        <animate attributeName="opacity" dur="20s" repeatCount="indefinite" keyTimes="0;0.4103;0.4283;1" values="0;1;1;0"/>
      </circle><circle cx="417.5" cy="34.5" r="0" fill="none" stroke="#56d364" stroke-width="1.6" opacity="0">
        <animate attributeName="r" dur="20s" repeatCount="indefinite" keyTimes="0;0.4103;0.4283;1" values="0;1;9;9"/>
        <animate attributeName="opacity" dur="20s" repeatCount="indefinite" keyTimes="0;0.4103;0.4283;1" values="0;1;1;0"/>
      </circle><circle cx="417.5" cy="48.5" r="0" fill="none" stroke="#56d364" stroke-width="1.6" opacity="0">
        <animate attributeName="r" dur="20s" repeatCount="indefinite" keyTimes="0;0.4103;0.4283;1" values="0;1;9;9"/>
        <animate attributeName="opacity" dur="20s" repeatCount="indefinite" keyTimes="0;0.4103;0.4283;1" values="0;1;1;0"/>
      </circle><circle cx="473.5" cy="62.5" r="0" fill="none" stroke="#56d364" stroke-width="1.6" opacity="0">
        <animate attributeName="r" dur="20s" repeatCount="indefinite" keyTimes="0;0.4661;0.4841;1" values="0;1;9;9"/>
        <animate attributeName="opacity" dur="20s" repeatCount="indefinite" keyTimes="0;0.4661;0.4841;1" values="0;1;1;0"/>
      </circle><circle cx="487.5" cy="62.5" r="0" fill="none" stroke="#56d364" stroke-width="1.6" opacity="0">
        <animate attributeName="r" dur="20s" repeatCount="indefinite" keyTimes="0;0.48;0.498;1" values="0;1;9;9"/>
        <animate attributeName="opacity" dur="20s" repeatCount="indefinite" keyTimes="0;0.48;0.498;1" values="0;1;1;0"/>
      </circle><circle cx="487.5" cy="62.5" r="0" fill="none" stroke="#56d364" stroke-width="1.6" opacity="0">
        <animate attributeName="r" dur="20s" repeatCount="indefinite" keyTimes="0;0.52;0.538;1" values="0;1;9;9"/>
        <animate attributeName="opacity" dur="20s" repeatCount="indefinite" keyTimes="0;0.52;0.538;1" values="0;1;1;0"/>
      </circle><circle cx="473.5" cy="62.5" r="0" fill="none" stroke="#56d364" stroke-width="1.6" opacity="0">
        <animate attributeName="r" dur="20s" repeatCount="indefinite" keyTimes="0;0.5339;0.5519;1" values="0;1;9;9"/>
        <animate attributeName="opacity" dur="20s" repeatCount="indefinite" keyTimes="0;0.5339;0.5519;1" values="0;1;1;0"/>
      </circle><circle cx="417.5" cy="48.5" r="0" fill="none" stroke="#56d364" stroke-width="1.6" opacity="0">
        <animate attributeName="r" dur="20s" repeatCount="indefinite" keyTimes="0;0.5897;0.6077;1" values="0;1;9;9"/>
        <animate attributeName="opacity" dur="20s" repeatCount="indefinite" keyTimes="0;0.5897;0.6077;1" values="0;1;1;0"/>
      </circle><circle cx="417.5" cy="34.5" r="0" fill="none" stroke="#56d364" stroke-width="1.6" opacity="0">
        <animate attributeName="r" dur="20s" repeatCount="indefinite" keyTimes="0;0.5897;0.6077;1" values="0;1;9;9"/>
        <animate attributeName="opacity" dur="20s" repeatCount="indefinite" keyTimes="0;0.5897;0.6077;1" values="0;1;1;0"/>
      </circle><circle cx="417.5" cy="20.5" r="0" fill="none" stroke="#56d364" stroke-width="1.6" opacity="0">
        <animate attributeName="r" dur="20s" repeatCount="indefinite" keyTimes="0;0.5897;0.6077;1" values="0;1;9;9"/>
        <animate attributeName="opacity" dur="20s" repeatCount="indefinite" keyTimes="0;0.5897;0.6077;1" values="0;1;1;0"/>
      </circle><circle cx="403.5" cy="62.5" r="0" fill="none" stroke="#56d364" stroke-width="1.6" opacity="0">
        <animate attributeName="r" dur="20s" repeatCount="indefinite" keyTimes="0;0.6036;0.6216;1" values="0;1;9;9"/>
        <animate attributeName="opacity" dur="20s" repeatCount="indefinite" keyTimes="0;0.6036;0.6216;1" values="0;1;1;0"/>
      </circle><circle cx="403.5" cy="34.5" r="0" fill="none" stroke="#56d364" stroke-width="1.6" opacity="0">
        <animate attributeName="r" dur="20s" repeatCount="indefinite" keyTimes="0;0.6036;0.6216;1" values="0;1;9;9"/>
        <animate attributeName="opacity" dur="20s" repeatCount="indefinite" keyTimes="0;0.6036;0.6216;1" values="0;1;1;0"/>
      </circle><circle cx="389.5" cy="76.5" r="0" fill="none" stroke="#56d364" stroke-width="1.6" opacity="0">
        <animate attributeName="r" dur="20s" repeatCount="indefinite" keyTimes="0;0.6176;0.6356;1" values="0;1;9;9"/>
        <animate attributeName="opacity" dur="20s" repeatCount="indefinite" keyTimes="0;0.6176;0.6356;1" values="0;1;1;0"/>
      </circle><circle cx="389.5" cy="48.5" r="0" fill="none" stroke="#56d364" stroke-width="1.6" opacity="0">
        <animate attributeName="r" dur="20s" repeatCount="indefinite" keyTimes="0;0.6176;0.6356;1" values="0;1;9;9"/>
        <animate attributeName="opacity" dur="20s" repeatCount="indefinite" keyTimes="0;0.6176;0.6356;1" values="0;1;1;0"/>
      </circle><circle cx="375.5" cy="104.5" r="0" fill="none" stroke="#56d364" stroke-width="1.6" opacity="0">
        <animate attributeName="r" dur="20s" repeatCount="indefinite" keyTimes="0;0.6315;0.6495;1" values="0;1;9;9"/>
        <animate attributeName="opacity" dur="20s" repeatCount="indefinite" keyTimes="0;0.6315;0.6495;1" values="0;1;1;0"/>
      </circle><circle cx="375.5" cy="90.5" r="0" fill="none" stroke="#56d364" stroke-width="1.6" opacity="0">
        <animate attributeName="r" dur="20s" repeatCount="indefinite" keyTimes="0;0.6315;0.6495;1" values="0;1;9;9"/>
        <animate attributeName="opacity" dur="20s" repeatCount="indefinite" keyTimes="0;0.6315;0.6495;1" values="0;1;1;0"/>
      </circle><circle cx="319.5" cy="62.5" r="0" fill="none" stroke="#56d364" stroke-width="1.6" opacity="0">
        <animate attributeName="r" dur="20s" repeatCount="indefinite" keyTimes="0;0.6873;0.7053;1" values="0;1;9;9"/>
        <animate attributeName="opacity" dur="20s" repeatCount="indefinite" keyTimes="0;0.6873;0.7053;1" values="0;1;1;0"/>
      </circle></g><g id="rocket">
    <polygon points="0,-16 8,6 4,3 -4,3 -8,6" fill="#58a6ff" stroke="#1f6feb" stroke-width="1"/>
    <polygon points="-8,6 -14,12 -4,7" fill="#388bfd"/>
    <polygon points="8,6 14,12 4,7" fill="#388bfd"/>
    <circle cx="0" cy="-6" r="2.2" fill="#c9e6ff"/>
    <polygon points="-3,7 3,7 0,15" fill="#f0883e"><animate attributeName="opacity" values=".5;1;.6;1" dur=".18s" repeatCount="indefinite"/></polygon>
    <animateTransform attributeName="transform" type="translate" dur="20s" repeatCount="indefinite" keyTimes="0;.5;1" values="35,140;478,140;35,140"/>
  </g></svg>